{"title":"MYLENE FARMER---Clip_À l'ombre-2012_720p","uid":7878107,"size":197495718,"categoryP":"video","categoryS":"music_videos","magnet":"?xt=urn:btih:247dd6e67def9add242bc3fcc13872a66784a51d&amp;dn=MYLENE+FARMER---Clip_%26Agrave%3B+l%27ombre-2012_720p&amp;tr=udp%3A%2F%2Ftracker.openbittorrent.com%3A80&amp;tr=udp%3A%2F%2Fopen.demonii.com%3A1337&amp;tr=udp%3A%2F%2Ftracker.coppersurfer.tk%3A6969&amp;tr=udp%3A%2F%2Fexodus.desync.com%3A6969","seeders":0,"leechers":0,"uploader":null,"files":-1,"time":1354404044,"description":"Format                                   : AVI\nFormat/Info                              : Audio Video Interleave\nFile size                                : 188 MiB\nDuration                                 : 4mn 46s\nOverall bit rate                         : 5 506 Kbps\nWriting library                          : TMPGEnc 4.0 XPress Version. 4.7.7.307\n\nVideo\nID                                       : 0\nFormat                                   : MPEG-4 Visual\nFormat profile                           : Advanced Simple@L5\nFormat settings, BVOP                    : 2\nFormat settings, QPel                    : No\nFormat settings, GMC                     : No warppoints\nFormat settings, Matrix                  : Default (H.263)\nMuxing mode                              : Packed bitstream\nCodec ID                                 : XVID\nCodec ID/Hint                            : XviD\nDuration                                 : 4mn 46s\nBit rate                                 : 3 957 Kbps\nWidth                                    : 1 280 pixels\nHeight                                   : 720 pixels\nDisplay aspect ratio                     : 16:9\nFrame rate                               : 24.000 fps\nColor space                              : YUV\nChroma subsampling                       : 4:2:0\nBit depth                                : 8 bits\nScan type                                : Progressive\nCompression mode                         : Lossy\nBits/(Pixel*Frame)                       : 0.179\nStream size                              : 135 MiB (72%)\nWriting library                          : XviD 64\n\nAudio\nID                                       : 1\nFormat                                   : PCM\nFormat settings, Endianness              : Little\nFormat settings, Sign                    : Signed\nCodec ID                                 : 1\nDuration                                 : 4mn 46s\nBit rate mode                            : Constant\nBit rate                                 : 1 536 Kbps\nChannel(s)                               : 2 channels\nSampling rate                            : 48.0 KHz\nBit depth                                : 16 bits\nStream size                              : 52.5 MiB (28%)\nInterleave, duration                     : 42 ms (1.00 video frame)\nInterleave, preload duration             : 499 ms\n\n","torrent":{"xt":"urn:btih:247dd6e67def9add242bc3fcc13872a66784a51d","amp;dn":"MYLENE+FARMER---Clip_%26Agrave%3B+l%27ombre-2012_720p","amp;tr":["udp%3A%2F%2Ftracker.openbittorrent.com%3A80","udp%3A%2F%2Fopen.demonii.com%3A1337","udp%3A%2F%2Ftracker.coppersurfer.tk%3A6969","udp%3A%2F%2Fexodus.desync.com%3A6969"],"infoHash":"247dd6e67def9add242bc3fcc13872a66784a51d","infoHashBuffer":{"type":"Buffer","data":[36,125,214,230,125,239,154,221,36,43,195,252,193,56,114,166,103,132,165,29]},"announce":[],"urlList":[]}}